<svg xmlns="http://www.w3.org/2000/svg" viewBox="0 0 198.6 47.531">
  <defs>
    <style>
      .cls-1{fill:#fff}
    </style>
  </defs>
  <g id="Group_1" data-name="Group 1" transform="translate(-949.4 -272.979)">
    <path id="Path_12" data-name="Path 12" class="cls-1" d="M1007.845 664.551l10.019.054v26.677c-.009.765-.99 8.27-10.019 8.615-.169-6.576 0-35.346 0-35.346z" transform="translate(-58.37 -379.387)"/>
    <path id="Path_11" data-name="Path 11" class="cls-1" d="M1007.77 664.829l10.094-10.26h-10.094z" transform="translate(-58.37 -381.59)"/>
    <path id="Path_15" data-name="Path 15" class="cls-1" d="M-1.05 5.46q-1.17.09-1.17-.72 0-.69.87-.78l.81-.06a3.118 3.118 0 0 0 2.22-.885A3.923 3.923 0 0 0 2.4.36v-14.28a.9.9 0 0 1 .255-.69.945.945 0 0 1 .675-.24.892.892 0 0 1 .66.24.934.934 0 0 1 .24.69V.27a5.55 5.55 0 0 1-1.08 3.765A4.751 4.751 0 0 1-.24 5.4zm4.38-23.7a1.349 1.349 0 0 1-.975-.36 1.232 1.232 0 0 1-.375-.93 1.269 1.269 0 0 1 .375-.96 1.349 1.349 0 0 1 .975-.36 1.349 1.349 0 0 1 .975.36 1.269 1.269 0 0 1 .375.96 1.232 1.232 0 0 1-.375.93 1.349 1.349 0 0 1-.975.36zm16.59 3.39a.912.912 0 0 1 .675.255.912.912 0 0 1 .255.675V-.78a.912.912 0 0 1-.255.675.912.912 0 0 1-.675.255.825.825 0 0 1-.63-.255.945.945 0 0 1-.24-.675v-1.83a4.819 4.819 0 0 1-1.965 2.1 5.784 5.784 0 0 1-2.895.72 5.009 5.009 0 0 1-3.885-1.425A6.045 6.045 0 0 1 9-5.43v-8.49a.912.912 0 0 1 .255-.675.912.912 0 0 1 .675-.255.863.863 0 0 1 .66.255.945.945 0 0 1 .24.675v8.37a4.773 4.773 0 0 0 .855 3.135 3.336 3.336 0 0 0 2.685 1 4.451 4.451 0 0 0 3.375-1.335A4.933 4.933 0 0 0 19.02-6.3v-7.62a.945.945 0 0 1 .24-.675.863.863 0 0 1 .66-.255zm12.51 0a1.27 1.27 0 0 1 .81.15.7.7 0 0 1 .24.6q0 .75-.9.84l-.9.09a4.351 4.351 0 0 0-3.165 1.53 4.862 4.862 0 0 0-1.035 3.09v7.77a.934.934 0 0 1-.24.69.892.892 0 0 1-.66.24.945.945 0 0 1-.675-.24.9.9 0 0 1-.255-.69v-13.14a.9.9 0 0 1 .255-.69.945.945 0 0 1 .675-.24.852.852 0 0 1 .63.24.892.892 0 0 1 .24.66V-12a5.021 5.021 0 0 1 4.56-2.82zm14.67 0a.912.912 0 0 1 .675.255.912.912 0 0 1 .255.675V-.84a6.681 6.681 0 0 1-1.575 4.815A6.188 6.188 0 0 1 41.79 5.61a12.108 12.108 0 0 1-2.9-.315 8.742 8.742 0 0 1-2.38-.975q-1.08-.66-1.08-1.29a.762.762 0 0 1 .195-.54.646.646 0 0 1 .495-.21 1.175 1.175 0 0 1 .495.165q.315.165.435.225a13.122 13.122 0 0 0 2.1.945 8.216 8.216 0 0 0 2.67.375 4.34 4.34 0 0 0 3.3-1.17 4.881 4.881 0 0 0 1.11-3.48v-2.85a4.781 4.781 0 0 1-1.935 2.265 5.973 5.973 0 0 1-3.165.8 6.439 6.439 0 0 1-3.4-.9 6.086 6.086 0 0 1-2.31-2.55 8.341 8.341 0 0 1-.825-3.78 8.341 8.341 0 0 1 .825-3.78 6.086 6.086 0 0 1 2.31-2.55 6.439 6.439 0 0 1 3.4-.9 6.013 6.013 0 0 1 3.12.765 4.8 4.8 0 0 1 1.95 2.23v-2.01a.945.945 0 0 1 .24-.675.863.863 0 0 1 .66-.255zM41.37-2.07a4.413 4.413 0 0 0 3.555-1.5A6.145 6.145 0 0 0 46.2-7.68a6.157 6.157 0 0 0-1.29-4.125 4.4 4.4 0 0 0-3.54-1.515 4.458 4.458 0 0 0-3.57 1.5 6.145 6.145 0 0 0-1.29 4.14 6.085 6.085 0 0 0 1.29 4.125 4.48 4.48 0 0 0 3.57 1.485zm22.62-1.05a.6.6 0 0 1 .465.225.777.777 0 0 1 .195.525q0 .66-1.02 1.29A8.756 8.756 0 0 1 59.07.21a6.916 6.916 0 0 1-5.25-2.01 7.663 7.663 0 0 1-1.92-5.52 8.839 8.839 0 0 1 .855-3.975 6.357 6.357 0 0 1 2.4-2.67 6.675 6.675 0 0 1 3.555-.945 5.694 5.694 0 0 1 4.455 1.81 7.192 7.192 0 0 1 1.635 5 1.128 1.128 0 0 1-.24.8 1.031 1.031 0 0 1-.78.255h-9.99a6.236 6.236 0 0 0 1.44 4.2 4.968 4.968 0 0 0 3.81 1.44 5.891 5.891 0 0 0 2.16-.345 14.409 14.409 0 0 0 1.86-.915 2.144 2.144 0 0 1 .93-.455zm-5.28-10.29a4.428 4.428 0 0 0-3.36 1.32 6.056 6.056 0 0 0-1.5 3.69h9.27a5.684 5.684 0 0 0-1.2-3.7 4.035 4.035 0 0 0-3.21-1.31zm16.71-1.5q5.25 0 5.25 5.64v8.49a.945.945 0 0 1-.24.675.862.862 0 0 1-.66.255.912.912 0 0 1-.67-.255.912.912 0 0 1-.26-.675v-8.37a4.7 4.7 0 0 0-.87-3.15 3.493 3.493 0 0 0-2.76-.99 4.654 4.654 0 0 0-3.465 1.32 4.815 4.815 0 0 0-1.3 3.54v7.65a.945.945 0 0 1-.24.675.862.862 0 0 1-.66.255.912.912 0 0 1-.675-.255.912.912 0 0 1-.26-.675v-13.14a.912.912 0 0 1 .255-.675.912.912 0 0 1 .675-.255.852.852 0 0 1 .63.24.892.892 0 0 1 .24.66v1.89a4.86 4.86 0 0 1 2-2.115 6.039 6.039 0 0 1 3.01-.735zm29.16.06a.912.912 0 0 1 .675.255.912.912 0 0 1 .255.675V-.84a6.681 6.681 0 0 1-1.575 4.815A6.188 6.188 0 0 1 99.27 5.61a12.108 12.108 0 0 1-2.895-.315 8.742 8.742 0 0 1-2.385-.975q-1.08-.66-1.08-1.29a.762.762 0 0 1 .195-.54.646.646 0 0 1 .5-.21 1.175 1.175 0 0 1 .5.165q.315.165.435.225a13.122 13.122 0 0 0 2.1.945 8.216 8.216 0 0 0 2.67.375 4.34 4.34 0 0 0 3.3-1.17 4.881 4.881 0 0 0 1.11-3.48v-2.85a4.781 4.781 0 0 1-1.935 2.265 5.973 5.973 0 0 1-3.165.8 6.439 6.439 0 0 1-3.4-.9 6.086 6.086 0 0 1-2.31-2.55 8.342 8.342 0 0 1-.825-3.78 8.342 8.342 0 0 1 .825-3.78 6.086 6.086 0 0 1 2.31-2.55 6.439 6.439 0 0 1 3.4-.9 6.013 6.013 0 0 1 3.12.765 4.8 4.8 0 0 1 1.95 2.235v-2.01a.945.945 0 0 1 .24-.675.862.862 0 0 1 .65-.26zM98.85-2.07a4.413 4.413 0 0 0 3.555-1.5 6.145 6.145 0 0 0 1.275-4.11 6.157 6.157 0 0 0-1.29-4.125 4.4 4.4 0 0 0-3.54-1.515 4.458 4.458 0 0 0-3.57 1.5 6.145 6.145 0 0 0-1.29 4.14 6.085 6.085 0 0 0 1.29 4.125 4.48 4.48 0 0 0 3.57 1.485zm22.62-1.05a.6.6 0 0 1 .465.225.777.777 0 0 1 .195.525q0 .66-1.02 1.29a8.756 8.756 0 0 1-4.56 1.29 6.916 6.916 0 0 1-5.25-2.01 7.663 7.663 0 0 1-1.92-5.52 8.839 8.839 0 0 1 .855-3.975 6.357 6.357 0 0 1 2.4-2.67 6.675 6.675 0 0 1 3.555-.945 5.694 5.694 0 0 1 4.455 1.815A7.192 7.192 0 0 1 122.28-8.1a1.128 1.128 0 0 1-.24.8 1.031 1.031 0 0 1-.78.255h-9.99a6.236 6.236 0 0 0 1.44 4.2 4.968 4.968 0 0 0 3.81 1.44 5.891 5.891 0 0 0 2.16-.345 14.409 14.409 0 0 0 1.86-.915 2.144 2.144 0 0 1 .93-.455zm-5.28-10.29a4.428 4.428 0 0 0-3.36 1.32 6.056 6.056 0 0 0-1.5 3.69h9.27a5.684 5.684 0 0 0-1.2-3.7 4.035 4.035 0 0 0-3.21-1.31zM127.02.15a.945.945 0 0 1-.675-.24.9.9 0 0 1-.255-.69v-13.14a.9.9 0 0 1 .255-.69.945.945 0 0 1 .675-.24.892.892 0 0 1 .66.24.934.934 0 0 1 .24.69V-.78a.934.934 0 0 1-.24.69.892.892 0 0 1-.66.24zm0-18.39a1.349 1.349 0 0 1-.975-.36 1.232 1.232 0 0 1-.375-.93 1.269 1.269 0 0 1 .375-.96 1.349 1.349 0 0 1 .975-.36 1.349 1.349 0 0 1 .975.36 1.269 1.269 0 0 1 .375.96 1.232 1.232 0 0 1-.375.93 1.349 1.349 0 0 1-.975.36zm12.06 16.86q.84.09.84.78a.684.684 0 0 1-.27.57 1.316 1.316 0 0 1-.87.18l-.84-.06a4.7 4.7 0 0 1-3.375-1.39 5.619 5.619 0 0 1-1.1-3.795v-7.98h-2.28a.8.8 0 0 1-.57-.195.682.682 0 0 1-.21-.525.731.731 0 0 1 .21-.54.77.77 0 0 1 .57-.21h2.28v-3.72a.934.934 0 0 1 .24-.69.892.892 0 0 1 .66-.24.945.945 0 0 1 .675.24.9.9 0 0 1 .255.69v3.72h3.63a.812.812 0 0 1 .6.21.731.731 0 0 1 .21.54.682.682 0 0 1-.21.525.85.85 0 0 1-.6.195H135.3v8.07a3.923 3.923 0 0 0 .72 2.655 3.256 3.256 0 0 0 2.25.915zm10.29-13.53q5.25 0 5.25 5.64v8.49a.945.945 0 0 1-.24.675.863.863 0 0 1-.66.255.912.912 0 0 1-.675-.255.912.912 0 0 1-.255-.675v-8.37a4.7 4.7 0 0 0-.87-3.15 3.493 3.493 0 0 0-2.76-.99 4.654 4.654 0 0 0-3.465 1.32 4.815 4.815 0 0 0-1.305 3.54v7.65a.945.945 0 0 1-.24.675.863.863 0 0 1-.66.255.912.912 0 0 1-.675-.255.912.912 0 0 1-.255-.675v-13.14a.912.912 0 0 1 .255-.675.912.912 0 0 1 .675-.255.852.852 0 0 1 .63.24.892.892 0 0 1 .24.66v1.89a4.86 4.86 0 0 1 2-2.115 6.039 6.039 0 0 1 3.01-.735zm21.18 11.79a.6.6 0 0 1 .465.225.777.777 0 0 1 .2.525q0 .66-1.02 1.29A8.756 8.756 0 0 1 165.63.21a6.916 6.916 0 0 1-5.25-2.01 7.663 7.663 0 0 1-1.92-5.52 8.839 8.839 0 0 1 .855-3.975 6.357 6.357 0 0 1 2.4-2.67 6.675 6.675 0 0 1 3.555-.945 5.694 5.694 0 0 1 4.455 1.815A7.192 7.192 0 0 1 171.36-8.1a1.128 1.128 0 0 1-.24.8 1.031 1.031 0 0 1-.78.255h-9.99a6.236 6.236 0 0 0 1.44 4.2 4.968 4.968 0 0 0 3.81 1.44 5.891 5.891 0 0 0 2.16-.345 14.409 14.409 0 0 0 1.86-.915 2.144 2.144 0 0 1 .93-.455zm-5.28-10.29a4.428 4.428 0 0 0-3.36 1.32 6.056 6.056 0 0 0-1.5 3.69h9.27a5.684 5.684 0 0 0-1.2-3.7 4.035 4.035 0 0 0-3.21-1.31zm16.68-1.44a1.27 1.27 0 0 1 .81.15.7.7 0 0 1 .24.6q0 .75-.9.84l-.9.09a4.351 4.351 0 0 0-3.165 1.53A4.862 4.862 0 0 0 177-8.55v7.77a.934.934 0 0 1-.24.69.892.892 0 0 1-.66.24.945.945 0 0 1-.675-.24.9.9 0 0 1-.255-.69v-13.14a.9.9 0 0 1 .255-.69.945.945 0 0 1 .675-.24.852.852 0 0 1 .63.24.892.892 0 0 1 .24.66V-12a5.021 5.021 0 0 1 4.56-2.82z" transform="translate(965 306)"/>
  </g>
</svg>
