<?xml version="1.0" standalone="no"?>
<!DOCTYPE svg PUBLIC "-//W3C//DTD SVG 20010904//EN"
 "http://www.w3.org/TR/2001/REC-SVG-20010904/DTD/svg10.dtd">
<svg version="1.0" xmlns="http://www.w3.org/2000/svg"
 width="700.000000pt" height="700.000000pt" viewBox="0 0 700.000000 700.000000"
 preserveAspectRatio="xMidYMid meet">
<metadata>
Created by potrace 1.11, written by Peter Selinger 2001-2013
</metadata>
<g transform="translate(0.000000,700.000000) scale(0.100000,-0.100000)"
fill="#000000" stroke="none">
<path d="M568 6990 c-140 -24 -254 -85 -364 -194 -90 -91 -140 -171 -176 -286
l-23 -75 0 -2935 0 -2935 23 -75 c70 -224 238 -392 462 -462 l75 -23 2935 0
2935 0 75 23 c224 70 392 238 462 462 l23 75 0 2935 0 2935 -23 75 c-36 115
-86 195 -176 286 -88 88 -168 138 -281 176 l-70 23 -1116 3 -1115 3 -710 -722
-709 -722 -3 722 -2 721 -1088 -1 c-598 -1 -1108 -5 -1134 -9z m3430 -1717
l212 -6 0 -1911 c0 -1838 -1 -1914 -19 -1996 -27 -117 -64 -217 -127 -340
-189 -366 -513 -601 -949 -689 -98 -20 -305 -42 -315 -34 -9 8 -12 2519 -5
3761 l7 1222 493 0 c270 0 587 -3 703 -7z"/>
</g>
</svg>
